REM DIRINDEX 1\2\5,1\2\6,1\2\7,1\2\8,1\3\9,1\3\10,1\3\11,1\4\12,1\4\13,1\4\14,1\4\15,1\4\16
REM DIRNAME cjc034,folder01,folder02,folder03,folder04,folder05,folder06,folder07,folder08,folder09,folder10,folder11,folder12,folder13,folder14,folder15
TITLE ""
FILE "1200_sec03_1037_1044.mp3" MP3
  TRACK 01 AUDIO
    TITLE "0:"
    INDEX 01 00:00:00
  TRACK 02 AUDIO
    TITLE "16:cjc034_07833"
    INDEX 01 00:00:17
  TRACK 03 AUDIO
    TITLE "0:"
    INDEX 01 00:05:57
  TRACK 04 AUDIO
    TITLE "12:cjc034_07834"
    INDEX 01 00:06:61
  TRACK 05 AUDIO
    TITLE "0:"
    INDEX 01 00:08:09
  TRACK 06 AUDIO
    TITLE "13:cjc034_07835"
    INDEX 01 00:08:44
  TRACK 07 AUDIO
    TITLE "0:"
    INDEX 01 00:10:39
  TRACK 08 AUDIO
    TITLE "14:cjc034_07836"
    INDEX 01 00:10:72
  TRACK 09 AUDIO
    TITLE "0:"
    INDEX 01 00:12:24
  TRACK 10 AUDIO
    TITLE "15:cjc034_07837"
    INDEX 01 00:12:58
  TRACK 11 AUDIO
    TITLE "0:"
    INDEX 01 00:17:25
  TRACK 12 AUDIO
    TITLE "12:cjc034_07838"
    INDEX 01 00:18:58
  TRACK 13 AUDIO
    TITLE "0:"
    INDEX 01 00:20:24
  TRACK 14 AUDIO
    TITLE "13:cjc034_07839"
    INDEX 01 00:20:59
  TRACK 15 AUDIO
    TITLE "0:"
    INDEX 01 00:22:15
  TRACK 16 AUDIO
    TITLE "14:cjc034_07840"
    INDEX 01 00:22:50
  TRACK 17 AUDIO
    TITLE "0:"
    INDEX 01 00:24:16
  TRACK 18 AUDIO
    TITLE "15:cjc034_07841"
    INDEX 01 00:24:51
  TRACK 19 AUDIO
    TITLE "0:"
    INDEX 01 00:29:54
  TRACK 20 AUDIO
    TITLE "12:cjc034_07842"
    INDEX 01 00:31:12
  TRACK 21 AUDIO
    TITLE "0:"
    INDEX 01 00:32:11
  TRACK 22 AUDIO
    TITLE "13:cjc034_07843"
    INDEX 01 00:32:45
  TRACK 23 AUDIO
    TITLE "0:"
    INDEX 01 00:35:70
  TRACK 24 AUDIO
    TITLE "14:cjc034_07844"
    INDEX 01 00:36:27
  TRACK 25 AUDIO
    TITLE "0:"
    INDEX 01 00:37:26
  TRACK 26 AUDIO
    TITLE "15:cjc034_07845"
    INDEX 01 00:37:59
  TRACK 27 AUDIO
    TITLE "0:"
    INDEX 01 00:41:47
  TRACK 28 AUDIO
    TITLE "12:cjc034_07846"
    INDEX 01 00:43:05
  TRACK 29 AUDIO
    TITLE "0:"
    INDEX 01 00:44:32
  TRACK 30 AUDIO
    TITLE "13:cjc034_07847"
    INDEX 01 00:44:65
  TRACK 31 AUDIO
    TITLE "0:"
    INDEX 01 00:45:65
  TRACK 32 AUDIO
    TITLE "14:cjc034_07848"
    INDEX 01 00:46:21
  TRACK 33 AUDIO
    TITLE "0:"
    INDEX 01 00:47:48
  TRACK 34 AUDIO
    TITLE "15:cjc034_07849"
    INDEX 01 00:48:06
  TRACK 35 AUDIO
    TITLE "0:"
    INDEX 01 00:51:40
  TRACK 36 AUDIO
    TITLE "12:cjc034_07850"
    INDEX 01 00:53:02
  TRACK 37 AUDIO
    TITLE "0:"
    INDEX 01 00:54:23
  TRACK 38 AUDIO
    TITLE "13:cjc034_07851"
    INDEX 01 00:54:62
  TRACK 39 AUDIO
    TITLE "0:"
    INDEX 01 00:56:04
  TRACK 40 AUDIO
    TITLE "14:cjc034_07852"
    INDEX 01 00:56:35
  TRACK 41 AUDIO
    TITLE "0:"
    INDEX 01 00:57:58
  TRACK 42 AUDIO
    TITLE "15:cjc034_07853"
    INDEX 01 00:58:24
  TRACK 43 AUDIO
    TITLE "0:"
    INDEX 01 01:03:71
  TRACK 44 AUDIO
    TITLE "12:cjc034_07854"
    INDEX 01 01:05:28
  TRACK 45 AUDIO
    TITLE "0:"
    INDEX 01 01:06:73
  TRACK 46 AUDIO
    TITLE "13:cjc034_07855"
    INDEX 01 01:07:31
  TRACK 47 AUDIO
    TITLE "0:"
    INDEX 01 01:08:46
  TRACK 48 AUDIO
    TITLE "14:cjc034_07856"
    INDEX 01 01:09:01
  TRACK 49 AUDIO
    TITLE "0:"
    INDEX 01 01:10:45
  TRACK 50 AUDIO
    TITLE "15:cjc034_07857"
    INDEX 01 01:11:03
  TRACK 51 AUDIO
    TITLE "0:"
    INDEX 01 01:16:07
  TRACK 52 AUDIO
    TITLE "12:cjc034_07858"
    INDEX 01 01:17:39
  TRACK 53 AUDIO
    TITLE "0:"
    INDEX 01 01:18:62
  TRACK 54 AUDIO
    TITLE "13:cjc034_07859"
    INDEX 01 01:19:21
  TRACK 55 AUDIO
    TITLE "0:"
    INDEX 01 01:21:39
  TRACK 56 AUDIO
    TITLE "14:cjc034_07860"
    INDEX 01 01:21:70
  TRACK 57 AUDIO
    TITLE "0:"
    INDEX 01 01:23:18
  TRACK 58 AUDIO
    TITLE "15:cjc034_07861"
    INDEX 01 01:23:52
  TRACK 59 AUDIO
    TITLE "0:"
    INDEX 01 01:27:46
  TRACK 60 AUDIO
    TITLE "12:cjc034_07862"
    INDEX 01 01:29:03
  TRACK 61 AUDIO
    TITLE "0:"
    INDEX 01 01:30:22
  TRACK 62 AUDIO
    TITLE "13:cjc034_07863"
    INDEX 01 01:30:54
  TRACK 63 AUDIO
    TITLE "0:"
    INDEX 01 01:33:21
  TRACK 64 AUDIO
    TITLE "14:cjc034_07864"
    INDEX 01 01:33:58
  TRACK 65 AUDIO
    TITLE "0:"
    INDEX 01 01:35:02
  TRACK 66 AUDIO
    TITLE "15:cjc034_07865"
    INDEX 01 01:35:33
  TRACK 67 AUDIO
    TITLE "0:"
    INDEX 01 01:39:47
